<svg xmlns="http://www.w3.org/2000/svg" version="1.1" xmlns:xlink="http://www.w3.org/1999/xlink" viewBox="0 0 200 200"><rect width="200" height="200" fill="url('#gradient')"></rect><defs><linearGradient id="gradient" gradientTransform="rotate(311 0.5 0.5)"><stop offset="0%" stop-color="#eb9d3e"></stop><stop offset="100%" stop-color="#623c32"></stop></linearGradient></defs><g><g fill="#431824" transform="matrix(2.7667273831208257,0,0,2.7667273831208257,11.078713268577218,119.39647726760754)" stroke="#4d1f42" stroke-width="0.1"><path d="M9.98 0L9.15-2.66L4.45-2.66L3.63 0L-0.03 0L5.19-14.22L8.41-14.22L13.66 0L9.98 0ZM6.80-10.23L5.27-5.30L8.33-5.30L6.80-10.23ZM14.01-10.57L17.10-10.57L17.21-9.33Q18.30-10.76 20.22-10.76L20.22-10.76Q21.88-10.76 22.69-9.78Q23.51-8.79 23.54-6.81L23.54-6.81L23.54 0L20.23 0L20.23-6.67Q20.23-7.47 19.91-7.85Q19.59-8.22 18.74-8.22L18.74-8.22Q17.77-8.22 17.30-7.46L17.30-7.46L17.30 0L14.01 0L14.01-10.57ZM25.29-10.57L28.38-10.57L28.49-9.33Q29.58-10.76 31.50-10.76L31.50-10.76Q33.15-10.76 33.97-9.78Q34.79-8.79 34.81-6.81L34.81-6.81L34.81 0L31.51 0L31.51-6.67Q31.51-7.47 31.19-7.85Q30.87-8.22 30.02-8.22L30.02-8.22Q29.05-8.22 28.58-7.46L28.58-7.46L28.58 0L25.29 0L25.29-10.57ZM45.88 0L42.59 0Q42.41-0.32 42.28-0.95L42.28-0.95Q41.37 0.20 39.74 0.20L39.74 0.20Q38.24 0.20 37.20-0.71Q36.15-1.61 36.15-2.98L36.15-2.98Q36.15-4.70 37.42-5.58Q38.69-6.46 41.11-6.46L41.11-6.46L42.13-6.46L42.13-7.01Q42.13-8.47 40.87-8.47L40.87-8.47Q39.70-8.47 39.70-7.31L39.70-7.31L36.41-7.31Q36.41-8.85 37.71-9.80Q39.01-10.76 41.04-10.76Q43.06-10.76 44.23-9.78Q45.40-8.79 45.43-7.07L45.43-7.07L45.43-2.39Q45.45-0.94 45.88-0.17L45.88-0.17L45.88 0ZM40.53-2.15L40.53-2.15Q41.14-2.15 41.55-2.41Q41.95-2.68 42.13-3.01L42.13-3.01L42.13-4.70L41.17-4.70Q39.45-4.70 39.45-3.15L39.45-3.15Q39.45-2.71 39.76-2.43Q40.06-2.15 40.53-2.15ZM60.24 0L57.22-5.29L55.81-3.75L55.81 0L52.38 0L52.38-14.22L55.81-14.22L55.81-7.95L57.00-9.76L60.07-14.22L64.31-14.22L59.50-7.93L64.31 0L60.24 0Z"></path></g></g></svg>